<svg xmlns="http://www.w3.org/2000/svg" xmlns:xlink="http://www.w3.org/1999/xlink" width="1920" zoomAndPan="magnify" viewBox="0 0 1440 809.999993" height="1080" preserveAspectRatio="xMidYMid meet" version="1.0"><path fill="#5e17eb" d="M 729.988281 580.5 C 729.988281 573.074219 723.914062 567 716.488281 567 L 369 567 C 354.148438 567 342 554.851562 342 540 L 342 54 C 342 39.148438 354.148438 27 369 27 L 990 27 C 1004.851562 27 1017 39.148438 1017 54 L 1017 303.886719 C 1017 311.308594 1023.074219 317.386719 1030.5 317.386719 C 1037.925781 317.386719 1044 311.308594 1044 303.886719 L 1044 54 C 1044 24.164062 1019.835938 0 990 0 L 369 0 C 339.164062 0 315 24.164062 315 54 L 315 540 C 315 569.835938 339.164062 594 369 594 L 716.488281 594 C 723.914062 594 729.988281 587.925781 729.988281 580.5 Z M 729.988281 580.5 " fill-opacity="1" fill-rule="nonzero"/><path fill="#5e17eb" d="M 594.855469 431.460938 C 601.335938 433.351562 608.21875 430.109375 610.921875 423.898438 L 661.410156 310.363281 L 774.136719 310.363281 C 779.804688 310.363281 784.800781 306.855469 786.824219 301.589844 L 824.894531 200.070312 L 966.78125 161.324219 C 973.933594 159.300781 978.253906 151.875 976.230469 144.71875 C 974.203125 137.566406 966.78125 133.246094 959.625 135.269531 L 811.125 175.769531 C 806.941406 176.851562 803.566406 179.953125 802.078125 184.003906 L 764.820312 283.230469 L 652.636719 283.230469 C 647.234375 283.230469 642.511719 286.335938 640.351562 291.195312 L 591.074219 402.03125 L 507.78125 378.269531 C 502.785156 376.921875 497.386719 378.269531 494.011719 382.320312 L 409.636719 477.226562 L 409.636719 396.765625 L 467.550781 338.851562 L 554.355469 363.691406 C 558 364.769531 561.914062 364.230469 565.019531 362.203125 C 568.261719 360.179688 570.554688 357.074219 571.230469 353.296875 L 595.664062 230.851562 L 677.476562 242.59375 C 682.875 243.40625 688.003906 240.976562 690.839844 236.386719 L 755.234375 133.378906 L 965.429688 93.960938 C 972.71875 92.609375 977.578125 85.589844 976.230469 78.164062 C 974.878906 70.875 967.859375 66.015625 960.433594 67.363281 L 744.433594 107.863281 C 740.789062 108.539062 737.414062 110.835938 735.523438 113.941406 L 672.613281 214.515625 L 586.753906 202.230469 C 579.601562 201.148438 572.984375 205.875 571.636719 212.894531 L 547.46875 333.585938 L 467.011719 310.636719 C 462.285156 309.285156 457.289062 310.636719 453.78125 314.011719 L 409.363281 358.425781 L 409.363281 81 C 409.363281 73.574219 403.289062 67.5 395.863281 67.5 C 388.441406 67.5 382.363281 73.574219 382.363281 81 L 382.363281 513 C 382.363281 513 382.363281 513.269531 382.363281 513.40625 C 382.363281 514.351562 382.769531 515.296875 382.90625 516.238281 C 383.039062 517.050781 383.175781 517.726562 383.445312 518.535156 C 383.714844 519.210938 384.253906 519.75 384.660156 520.425781 C 385.199219 521.234375 385.738281 522.179688 386.550781 522.855469 C 386.550781 522.855469 386.550781 523.125 386.820312 523.125 C 387.496094 523.664062 388.304688 523.933594 388.980469 524.476562 C 389.65625 524.878906 390.195312 525.285156 390.871094 525.554688 C 392.488281 526.230469 394.109375 526.5 395.863281 526.5 L 706.363281 526.5 C 713.789062 526.5 719.863281 520.425781 719.863281 513 C 719.863281 505.574219 713.789062 499.5 706.363281 499.5 L 426.105469 499.5 L 508.453125 406.753906 Z M 594.855469 431.460938 " fill-opacity="1" fill-rule="nonzero"/><path fill="#5e17eb" d="M 936 324 C 831.78125 324 747 408.78125 747 513 C 747 550.53125 758.070312 585.359375 776.96875 614.789062 L 749.296875 642.464844 L 745.246094 638.414062 C 740.113281 633.285156 731.203125 633.285156 726.210938 638.414062 L 656.550781 708.074219 C 645.34375 719.28125 639.136719 734.265625 639.136719 750.195312 C 639.136719 766.125 645.34375 781.109375 656.550781 792.316406 C 667.753906 803.519531 682.738281 809.730469 698.671875 809.730469 C 714.601562 809.730469 729.585938 803.519531 740.789062 792.316406 L 810.449219 722.65625 C 813.015625 720.089844 814.363281 716.714844 814.363281 713.070312 C 814.363281 709.425781 812.878906 706.050781 810.449219 703.484375 L 806.398438 699.433594 L 834.074219 671.761719 C 863.503906 690.660156 898.335938 701.730469 935.863281 701.730469 C 1040.085938 701.730469 1124.863281 616.949219 1124.863281 512.730469 C 1124.863281 408.511719 1040.085938 323.730469 935.863281 323.730469 Z M 721.753906 773.414062 C 709.335938 785.699219 687.871094 785.699219 675.585938 773.414062 C 669.375 767.203125 666 759.105469 666 750.328125 C 666 741.554688 669.375 733.453125 675.585938 727.246094 L 735.796875 667.035156 L 739.710938 670.949219 C 739.710938 670.949219 739.710938 670.949219 739.710938 671.085938 C 739.710938 671.21875 739.710938 671.085938 739.84375 671.085938 L 777.644531 708.886719 C 777.644531 708.886719 777.644531 708.886719 777.644531 709.019531 C 777.644531 709.15625 777.644531 709.019531 777.78125 709.019531 L 781.695312 712.933594 L 721.484375 773.144531 Z M 787.363281 680.535156 L 768.328125 661.5 L 793.304688 636.523438 C 799.246094 643.273438 805.453125 649.621094 812.339844 655.558594 Z M 936 675 C 846.628906 675 774 602.371094 774 513 C 774 423.628906 846.628906 351 936 351 C 1025.371094 351 1098 423.628906 1098 513 C 1098 602.371094 1025.371094 675 936 675 Z M 936 675 " fill-opacity="1" fill-rule="nonzero"/><path fill="#5e17eb" d="M 936 378 C 861.613281 378 801 438.613281 801 513 C 801 587.386719 861.613281 648 936 648 C 1010.386719 648 1071 587.386719 1071 513 C 1071 438.613281 1010.386719 378 936 378 Z M 936 621 C 876.464844 621 828 572.535156 828 513 C 828 453.464844 876.464844 405 936 405 C 995.535156 405 1044 453.464844 1044 513 C 1044 572.535156 995.535156 621 936 621 Z M 936 621 " fill-opacity="1" fill-rule="nonzero"/></svg>