<svg xmlns="http://www.w3.org/2000/svg" xmlns:xlink="http://www.w3.org/1999/xlink" width="1920" zoomAndPan="magnify" viewBox="0 0 1440 809.999993" height="1080" preserveAspectRatio="xMidYMid meet" version="1.0"><defs><clipPath id="f916a982a0"><path d="M 320.0625 276 L 407 276 L 407 363 L 320.0625 363 Z M 320.0625 276 " clip-rule="nonzero"/></clipPath><clipPath id="7203e90a3a"><path d="M 320.0625 447 L 407 447 L 407 534 L 320.0625 534 Z M 320.0625 447 " clip-rule="nonzero"/></clipPath></defs><path fill="#5e17eb" d="M 851.203125 560.878906 L 588.320312 560.878906 C 561.273438 560.878906 538.972656 538.578125 538.972656 511.527344 L 538.972656 298.472656 C 538.972656 270.949219 561.273438 248.648438 588.320312 248.648438 L 851.203125 248.648438 C 878.726562 248.648438 901.027344 270.949219 901.027344 298.472656 L 901.027344 511.527344 C 901.027344 538.578125 878.726562 560.878906 851.203125 560.878906 Z M 597.335938 462.179688 C 596.386719 462.179688 595.4375 462.179688 594.492188 461.703125 C 590.21875 460.28125 588.320312 455.535156 590.21875 451.265625 L 607.300781 408.558594 L 607.300781 408.085938 L 638.144531 331.210938 C 638.144531 331.210938 638.144531 330.738281 638.144531 330.738281 C 638.621094 329.789062 639.09375 328.839844 640.042969 328.367188 C 640.519531 327.417969 641.46875 326.941406 642.417969 326.46875 C 642.417969 326.46875 642.417969 326.46875 642.890625 326.46875 C 643.839844 325.992188 644.316406 325.992188 645.261719 325.992188 C 646.210938 325.992188 647.160156 325.992188 648.109375 326.46875 C 648.109375 326.46875 648.585938 326.46875 648.585938 326.46875 C 649.535156 326.941406 650.484375 327.417969 650.957031 328.367188 C 651.90625 328.839844 652.382812 329.789062 652.855469 330.738281 C 652.855469 330.738281 652.855469 331.210938 652.855469 331.210938 L 683.699219 408.085938 L 683.699219 408.558594 L 700.78125 451.265625 C 702.207031 455.535156 700.308594 460.28125 696.511719 461.703125 C 692.242188 463.128906 687.496094 461.230469 686.070312 457.433594 L 670.886719 419.472656 L 620.113281 419.472656 L 604.929688 457.433594 C 603.507812 460.28125 600.660156 462.179688 597.335938 462.179688 Z M 778.128906 462.652344 L 735.894531 462.652344 C 731.625 462.652344 728.304688 459.332031 728.304688 455.0625 C 728.304688 450.316406 731.625 446.996094 735.894531 446.996094 L 770.0625 446.996094 L 770.0625 341.175781 L 735.894531 341.175781 C 731.625 341.175781 728.304688 337.855469 728.304688 333.585938 C 728.304688 328.839844 731.625 325.519531 735.894531 325.519531 L 819.886719 325.519531 C 824.15625 325.519531 827.953125 328.839844 827.953125 333.585938 C 827.953125 337.855469 824.15625 341.175781 819.886719 341.175781 L 785.71875 341.175781 L 785.71875 446.996094 L 819.886719 446.996094 C 824.15625 446.996094 827.953125 450.316406 827.953125 455.0625 C 827.953125 459.332031 824.15625 462.652344 819.886719 462.652344 Z M 664.71875 403.339844 L 645.261719 355.414062 L 626.28125 403.339844 Z M 664.71875 403.339844 " fill-opacity="1" fill-rule="evenodd"/><path fill="#5e17eb" d="M 678.003906 264.78125 C 673.734375 264.78125 669.9375 260.984375 669.9375 256.714844 L 669.9375 77.820312 C 669.9375 73.550781 673.734375 69.753906 678.003906 69.753906 C 682.277344 69.753906 685.597656 73.550781 685.597656 77.820312 L 685.597656 256.714844 C 685.597656 260.984375 682.277344 264.78125 678.003906 264.78125 Z M 678.003906 264.78125 " fill-opacity="1" fill-rule="evenodd"/><path fill="#5e17eb" d="M 678.003906 85.886719 C 654.28125 85.886719 634.824219 66.433594 634.824219 42.707031 C 634.824219 19.457031 654.28125 0 678.003906 0 C 701.730469 0 720.710938 19.457031 720.710938 42.707031 C 720.710938 66.433594 701.730469 85.886719 678.003906 85.886719 Z M 678.003906 85.886719 " fill-opacity="1" fill-rule="evenodd"/><path fill="#5e17eb" d="M 761.996094 264.78125 C 757.722656 264.78125 753.929688 260.984375 753.929688 256.714844 L 753.929688 182.6875 C 753.929688 178.417969 757.722656 174.621094 761.996094 174.621094 C 766.265625 174.621094 770.0625 178.417969 770.0625 182.6875 L 770.0625 256.714844 C 770.0625 260.984375 766.265625 264.78125 761.996094 264.78125 Z M 761.996094 264.78125 " fill-opacity="1" fill-rule="evenodd"/><path fill="#5e17eb" d="M 761.996094 190.753906 C 738.269531 190.753906 719.289062 171.300781 719.289062 147.574219 C 719.289062 124.324219 738.269531 104.867188 761.996094 104.867188 C 785.71875 104.867188 804.703125 124.324219 804.703125 147.574219 C 804.703125 171.300781 785.71875 190.753906 761.996094 190.753906 Z M 761.996094 190.753906 " fill-opacity="1" fill-rule="evenodd"/><path fill="#5e17eb" d="M 845.984375 264.78125 C 841.714844 264.78125 837.917969 260.984375 837.917969 256.714844 L 837.917969 140.929688 C 837.917969 117.679688 856.898438 98.699219 880.148438 98.699219 L 930.449219 98.699219 C 934.71875 98.699219 938.515625 102.496094 938.515625 106.765625 C 938.515625 111.035156 934.71875 114.832031 930.449219 114.832031 L 880.148438 114.832031 C 865.914062 114.832031 854.050781 126.222656 854.050781 140.929688 L 854.050781 256.714844 C 854.050781 260.984375 850.253906 264.78125 845.984375 264.78125 Z M 845.984375 264.78125 " fill-opacity="1" fill-rule="evenodd"/><path fill="#5e17eb" d="M 965.5625 149.472656 C 941.835938 149.472656 922.382812 130.492188 922.382812 106.765625 C 922.382812 83.039062 941.835938 64.058594 965.5625 64.058594 C 989.289062 64.058594 1008.269531 83.039062 1008.269531 106.765625 C 1008.269531 130.492188 989.289062 149.472656 965.5625 149.472656 Z M 965.5625 149.472656 " fill-opacity="1" fill-rule="evenodd"/><path fill="#5e17eb" d="M 594.015625 264.78125 C 589.269531 264.78125 585.949219 260.984375 585.949219 256.714844 L 585.949219 140.929688 C 585.949219 126.222656 574.085938 114.832031 559.851562 114.832031 L 509.550781 114.832031 C 504.808594 114.832031 501.484375 111.035156 501.484375 106.765625 C 501.484375 102.496094 504.808594 98.699219 509.550781 98.699219 L 559.851562 98.699219 C 583.101562 98.699219 601.609375 117.679688 601.609375 140.929688 L 601.609375 256.714844 C 601.609375 260.984375 598.285156 264.78125 594.015625 264.78125 Z M 594.015625 264.78125 " fill-opacity="1" fill-rule="evenodd"/><path fill="#5e17eb" d="M 474.4375 149.472656 C 450.710938 149.472656 431.730469 130.492188 431.730469 106.765625 C 431.730469 83.039062 450.710938 64.058594 474.4375 64.058594 C 498.164062 64.058594 517.144531 83.039062 517.144531 106.765625 C 517.144531 130.492188 498.164062 149.472656 474.4375 149.472656 Z M 474.4375 149.472656 " fill-opacity="1" fill-rule="evenodd"/><path fill="#5e17eb" d="M 1041.960938 326.941406 L 892.960938 326.941406 C 888.691406 326.941406 884.894531 323.144531 884.894531 318.875 C 884.894531 314.605469 888.691406 311.28125 892.960938 311.28125 L 1041.960938 311.28125 C 1046.230469 311.28125 1049.550781 314.605469 1049.550781 318.875 C 1049.550781 323.144531 1046.230469 326.941406 1041.960938 326.941406 Z M 1041.960938 326.941406 " fill-opacity="1" fill-rule="evenodd"/><path fill="#5e17eb" d="M 1076.597656 362.054688 C 1053.347656 362.054688 1033.894531 342.601562 1033.894531 318.875 C 1033.894531 295.148438 1053.347656 276.167969 1076.597656 276.167969 C 1100.324219 276.167969 1119.78125 295.148438 1119.78125 318.875 C 1119.78125 342.601562 1100.324219 362.054688 1076.597656 362.054688 Z M 1076.597656 362.054688 " fill-opacity="1" fill-rule="evenodd"/><path fill="#5e17eb" d="M 937.566406 412.828125 L 892.960938 412.828125 C 888.691406 412.828125 884.894531 409.507812 884.894531 404.761719 C 884.894531 400.492188 888.691406 397.171875 892.960938 397.171875 L 937.566406 397.171875 C 941.835938 397.171875 945.15625 400.492188 945.15625 404.761719 C 945.15625 409.507812 941.835938 412.828125 937.566406 412.828125 Z M 937.566406 412.828125 " fill-opacity="1" fill-rule="evenodd"/><path fill="#5e17eb" d="M 972.207031 447.945312 C 948.953125 447.945312 929.5 428.488281 929.5 404.761719 C 929.5 381.511719 948.953125 362.054688 972.207031 362.054688 C 995.929688 362.054688 1015.386719 381.511719 1015.386719 404.761719 C 1015.386719 428.488281 995.929688 447.945312 972.207031 447.945312 Z M 972.207031 447.945312 " fill-opacity="1" fill-rule="evenodd"/><path fill="#5e17eb" d="M 1041.960938 498.242188 L 892.960938 498.242188 C 888.691406 498.242188 884.894531 494.921875 884.894531 490.175781 C 884.894531 485.90625 888.691406 482.582031 892.960938 482.582031 L 1041.960938 482.582031 C 1046.230469 482.582031 1049.550781 485.90625 1049.550781 490.175781 C 1049.550781 494.921875 1046.230469 498.242188 1041.960938 498.242188 Z M 1041.960938 498.242188 " fill-opacity="1" fill-rule="evenodd"/><path fill="#5e17eb" d="M 1076.597656 533.355469 C 1053.347656 533.355469 1033.894531 513.902344 1033.894531 490.175781 C 1033.894531 466.925781 1053.347656 447.46875 1076.597656 447.46875 C 1100.324219 447.46875 1119.78125 466.925781 1119.78125 490.175781 C 1119.78125 513.902344 1100.324219 533.355469 1076.597656 533.355469 Z M 1076.597656 533.355469 " fill-opacity="1" fill-rule="evenodd"/><path fill="#5e17eb" d="M 678.003906 739.773438 C 673.734375 739.773438 669.9375 736.449219 669.9375 732.179688 L 669.9375 553.285156 C 669.9375 548.542969 673.734375 545.21875 678.003906 545.21875 C 682.277344 545.21875 685.597656 548.542969 685.597656 553.285156 L 685.597656 732.179688 C 685.597656 736.449219 682.277344 739.773438 678.003906 739.773438 Z M 678.003906 739.773438 " fill-opacity="1" fill-rule="evenodd"/><path fill="#5e17eb" d="M 678.003906 810 C 654.28125 810 634.824219 790.542969 634.824219 766.820312 C 634.824219 743.09375 654.28125 724.113281 678.003906 724.113281 C 701.730469 724.113281 720.710938 743.09375 720.710938 766.820312 C 720.710938 790.542969 701.730469 810 678.003906 810 Z M 678.003906 810 " fill-opacity="1" fill-rule="evenodd"/><path fill="#5e17eb" d="M 761.996094 634.902344 C 757.722656 634.902344 753.929688 631.582031 753.929688 627.3125 L 753.929688 553.285156 C 753.929688 548.542969 757.722656 545.21875 761.996094 545.21875 C 766.265625 545.21875 770.0625 548.542969 770.0625 553.285156 L 770.0625 627.3125 C 770.0625 631.582031 766.265625 634.902344 761.996094 634.902344 Z M 761.996094 634.902344 " fill-opacity="1" fill-rule="evenodd"/><path fill="#5e17eb" d="M 761.996094 705.132812 C 738.269531 705.132812 719.289062 685.675781 719.289062 661.949219 C 719.289062 638.226562 738.269531 619.246094 761.996094 619.246094 C 785.71875 619.246094 804.703125 638.226562 804.703125 661.949219 C 804.703125 685.675781 785.71875 705.132812 761.996094 705.132812 Z M 761.996094 705.132812 " fill-opacity="1" fill-rule="evenodd"/><path fill="#5e17eb" d="M 930.449219 710.824219 L 880.148438 710.824219 C 856.898438 710.824219 837.917969 692.320312 837.917969 669.070312 L 837.917969 553.285156 C 837.917969 548.542969 841.714844 545.21875 845.984375 545.21875 C 850.253906 545.21875 854.050781 548.542969 854.050781 553.285156 L 854.050781 669.070312 C 854.050781 683.304688 865.914062 695.167969 880.148438 695.167969 L 930.449219 695.167969 C 934.71875 695.167969 938.515625 698.488281 938.515625 703.234375 C 938.515625 707.503906 934.71875 710.824219 930.449219 710.824219 Z M 930.449219 710.824219 " fill-opacity="1" fill-rule="evenodd"/><path fill="#5e17eb" d="M 965.5625 745.941406 C 941.835938 745.941406 922.382812 726.484375 922.382812 703.234375 C 922.382812 679.507812 941.835938 660.050781 965.5625 660.050781 C 989.289062 660.050781 1008.269531 679.507812 1008.269531 703.234375 C 1008.269531 726.484375 989.289062 745.941406 965.5625 745.941406 Z M 965.5625 745.941406 " fill-opacity="1" fill-rule="evenodd"/><path fill="#5e17eb" d="M 559.851562 710.824219 L 509.550781 710.824219 C 504.808594 710.824219 501.484375 707.503906 501.484375 703.234375 C 501.484375 698.488281 504.808594 695.167969 509.550781 695.167969 L 559.851562 695.167969 C 574.085938 695.167969 585.949219 683.304688 585.949219 669.070312 L 585.949219 553.285156 C 585.949219 548.542969 589.269531 545.21875 594.015625 545.21875 C 598.285156 545.21875 601.609375 548.542969 601.609375 553.285156 L 601.609375 669.070312 C 601.609375 692.320312 583.101562 710.824219 559.851562 710.824219 Z M 559.851562 710.824219 " fill-opacity="1" fill-rule="evenodd"/><path fill="#5e17eb" d="M 474.4375 745.941406 C 450.710938 745.941406 431.730469 726.484375 431.730469 703.234375 C 431.730469 679.507812 450.710938 660.050781 474.4375 660.050781 C 498.164062 660.050781 517.144531 679.507812 517.144531 703.234375 C 517.144531 726.484375 498.164062 745.941406 474.4375 745.941406 Z M 474.4375 745.941406 " fill-opacity="1" fill-rule="evenodd"/><path fill="#5e17eb" d="M 547.039062 326.941406 L 398.039062 326.941406 C 393.769531 326.941406 389.972656 323.621094 389.972656 319.351562 C 389.972656 314.605469 393.769531 311.28125 398.039062 311.28125 L 547.039062 311.28125 C 551.308594 311.28125 554.632812 314.605469 554.632812 319.351562 C 554.632812 323.621094 551.308594 326.941406 547.039062 326.941406 Z M 547.039062 326.941406 " fill-opacity="1" fill-rule="evenodd"/><g clip-path="url(#f916a982a0)"><path fill="#5e17eb" d="M 362.925781 362.054688 C 339.675781 362.054688 320.21875 343.074219 320.21875 319.351562 C 320.21875 295.625 339.675781 276.167969 362.925781 276.167969 C 386.652344 276.167969 406.105469 295.625 406.105469 319.351562 C 406.105469 343.074219 386.652344 362.054688 362.925781 362.054688 Z M 362.925781 362.054688 " fill-opacity="1" fill-rule="evenodd"/></g><path fill="#5e17eb" d="M 547.039062 412.828125 L 502.433594 412.828125 C 498.164062 412.828125 494.367188 409.507812 494.367188 405.238281 C 494.367188 400.964844 498.164062 397.171875 502.433594 397.171875 L 547.039062 397.171875 C 551.308594 397.171875 554.632812 400.964844 554.632812 405.238281 C 554.632812 409.507812 551.308594 412.828125 547.039062 412.828125 Z M 547.039062 412.828125 " fill-opacity="1" fill-rule="evenodd"/><path fill="#5e17eb" d="M 467.320312 447.945312 C 443.59375 447.945312 424.613281 428.964844 424.613281 405.238281 C 424.613281 381.511719 443.59375 362.054688 467.320312 362.054688 C 491.046875 362.054688 510.5 381.511719 510.5 405.238281 C 510.5 428.964844 491.046875 447.945312 467.320312 447.945312 Z M 467.320312 447.945312 " fill-opacity="1" fill-rule="evenodd"/><path fill="#5e17eb" d="M 547.039062 498.71875 L 398.039062 498.71875 C 393.769531 498.71875 389.972656 494.921875 389.972656 490.648438 C 389.972656 486.378906 393.769531 482.582031 398.039062 482.582031 L 547.039062 482.582031 C 551.308594 482.582031 554.632812 486.378906 554.632812 490.648438 C 554.632812 494.921875 551.308594 498.71875 547.039062 498.71875 Z M 547.039062 498.71875 " fill-opacity="1" fill-rule="evenodd"/><g clip-path="url(#7203e90a3a)"><path fill="#5e17eb" d="M 362.925781 533.355469 C 339.675781 533.355469 320.21875 514.375 320.21875 490.648438 C 320.21875 466.925781 339.675781 447.945312 362.925781 447.945312 C 386.652344 447.945312 406.105469 466.925781 406.105469 490.648438 C 406.105469 514.375 386.652344 533.355469 362.925781 533.355469 Z M 362.925781 533.355469 " fill-opacity="1" fill-rule="evenodd"/></g></svg>