<svg xmlns="http://www.w3.org/2000/svg" xmlns:xlink="http://www.w3.org/1999/xlink" width="1920" zoomAndPan="magnify" viewBox="0 0 1440 809.999993" height="1080" preserveAspectRatio="xMidYMid meet" version="1.0"><defs><clipPath id="0cfb0fd1f4"><path d="M 340 27 L 1101.351562 27 L 1101.351562 786.351562 L 340 786.351562 Z M 340 27 " clip-rule="nonzero"/></clipPath></defs><g clip-path="url(#0cfb0fd1f4)"><path fill="#5e17eb" d="M 472.78125 619.167969 L 472.78125 723.425781 C 472.78125 738.59375 467.542969 752.652344 458.789062 763.855469 L 999.285156 763.855469 C 1021.574219 763.855469 1041.820312 754.761719 1056.453125 740.117188 C 1071.144531 725.433594 1080.238281 705.191406 1080.238281 682.898438 L 1080.238281 75.191406 C 1080.238281 69.046875 1077.710938 63.4375 1073.664062 59.390625 C 1069.621094 55.347656 1064.011719 52.820312 1057.859375 52.820312 L 495.164062 52.820312 C 489.011719 52.820312 483.402344 55.347656 479.355469 59.390625 C 475.3125 63.4375 472.78125 69.046875 472.78125 75.191406 Z M 551.75 688.628906 C 544.714844 688.628906 539.003906 682.917969 539.003906 675.882812 C 539.003906 668.847656 544.714844 663.136719 551.75 663.136719 L 1001.269531 663.136719 C 1008.308594 663.136719 1014.019531 668.847656 1014.019531 675.882812 C 1014.019531 682.917969 1008.308594 688.628906 1001.269531 688.628906 Z M 551.75 599.433594 C 544.714844 599.433594 539.003906 593.722656 539.003906 586.6875 C 539.003906 579.652344 544.714844 573.941406 551.75 573.941406 L 1001.269531 573.941406 C 1008.308594 573.941406 1014.019531 579.652344 1014.019531 586.6875 C 1014.019531 593.722656 1008.308594 599.433594 1001.269531 599.433594 Z M 551.75 510.25 C 544.714844 510.25 539.003906 504.539062 539.003906 497.503906 C 539.003906 490.464844 544.714844 484.753906 551.75 484.753906 L 1001.269531 484.753906 C 1008.308594 484.753906 1014.019531 490.464844 1014.019531 497.503906 C 1014.019531 504.539062 1008.308594 510.25 1001.269531 510.25 Z M 795.058594 421.0625 C 788.023438 421.0625 782.3125 415.351562 782.3125 408.316406 C 782.3125 401.28125 788.023438 395.570312 795.058594 395.570312 L 1001.269531 395.570312 C 1008.308594 395.570312 1014.019531 401.28125 1014.019531 408.316406 C 1014.019531 415.351562 1008.308594 421.0625 1001.269531 421.0625 Z M 795.058594 331.878906 C 788.023438 331.878906 782.3125 326.167969 782.3125 319.128906 C 782.3125 312.09375 788.023438 306.382812 795.058594 306.382812 L 1001.269531 306.382812 C 1008.308594 306.382812 1014.019531 312.09375 1014.019531 319.128906 C 1014.019531 326.167969 1008.308594 331.878906 1001.269531 331.878906 Z M 795.058594 242.691406 C 788.023438 242.691406 782.3125 236.980469 782.3125 229.945312 C 782.3125 222.910156 788.023438 217.199219 795.058594 217.199219 L 1001.269531 217.199219 C 1008.308594 217.199219 1014.019531 222.910156 1014.019531 229.945312 C 1014.019531 236.980469 1008.308594 242.691406 1001.269531 242.691406 Z M 551.75 153.507812 C 544.714844 153.507812 539.003906 147.796875 539.003906 140.757812 C 539.003906 133.722656 544.714844 128.011719 551.75 128.011719 L 1001.269531 128.011719 C 1008.308594 128.011719 1014.019531 133.722656 1014.019531 140.757812 C 1014.019531 147.796875 1008.308594 153.507812 1001.269531 153.507812 Z M 551.75 188.351562 L 744.070312 188.351562 C 751.109375 188.351562 756.820312 194.0625 756.820312 201.101562 L 756.820312 437.792969 C 756.820312 444.828125 751.109375 450.539062 744.070312 450.539062 L 551.75 450.539062 C 544.714844 450.539062 539.003906 444.828125 539.003906 437.792969 L 539.003906 201.101562 C 539.003906 194.0625 544.714844 188.351562 551.75 188.351562 Z M 731.324219 213.847656 L 564.496094 213.847656 L 564.496094 425.046875 L 731.324219 425.046875 Z M 447.289062 619.496094 L 447.289062 212.453125 L 377.886719 212.453125 C 374.722656 212.453125 371.832031 213.734375 369.777344 215.792969 C 367.71875 217.851562 366.433594 220.742188 366.433594 223.902344 L 366.433594 723.425781 C 366.433594 734.539062 370.988281 744.644531 378.316406 751.972656 C 385.542969 759.238281 395.550781 763.765625 406.539062 763.855469 L 407.394531 763.855469 C 418.273438 763.714844 428.167969 759.175781 435.386719 751.960938 C 442.730469 744.644531 447.289062 734.515625 447.289062 723.425781 Z M 447.289062 186.957031 L 447.289062 75.191406 C 447.289062 62.011719 452.667969 50.027344 461.328125 41.367188 C 469.992188 32.703125 481.976562 27.324219 495.164062 27.324219 L 1057.859375 27.324219 C 1071.046875 27.324219 1083.03125 32.703125 1091.691406 41.367188 C 1100.351562 50.027344 1105.734375 62.011719 1105.734375 75.191406 L 1105.734375 682.898438 C 1105.734375 712.136719 1093.757812 738.742188 1074.480469 758.042969 L 1074.398438 758.125 C 1055.097656 777.382812 1028.511719 789.347656 999.285156 789.347656 L 406.460938 789.347656 C 388.523438 789.238281 372.195312 781.839844 360.339844 769.996094 C 348.355469 758.0625 340.941406 741.574219 340.941406 723.425781 L 340.941406 223.902344 C 340.941406 213.757812 345.09375 204.523438 351.769531 197.839844 C 358.503906 191.113281 367.738281 186.957031 377.886719 186.957031 Z M 447.289062 186.957031 " fill-opacity="1" fill-rule="nonzero"/></g></svg>