<svg xmlns="http://www.w3.org/2000/svg" xmlns:xlink="http://www.w3.org/1999/xlink" width="1920" zoomAndPan="magnify" viewBox="0 0 1440 809.999993" height="1080" preserveAspectRatio="xMidYMid meet" version="1.0"><defs><clipPath id="4e4e638dce"><path d="M 285.101562 3 L 1155 3 L 1155 806 L 285.101562 806 Z M 285.101562 3 " clip-rule="nonzero"/></clipPath></defs><g clip-path="url(#4e4e638dce)"><path fill="#5e17eb" d="M 326.257812 37.996094 L 1113.578125 37.996094 C 1117.4375 37.996094 1120.527344 41.007812 1120.527344 44.867188 L 1120.527344 577.753906 C 1120.527344 581.535156 1117.4375 584.546875 1113.578125 584.546875 L 326.257812 584.546875 C 322.472656 584.546875 319.386719 581.535156 319.386719 577.753906 L 319.386719 44.867188 C 319.386719 41.007812 322.472656 37.996094 326.257812 37.996094 Z M 302.320312 3.710938 C 292.824219 3.710938 285.101562 11.355469 285.101562 20.851562 L 285.101562 601.84375 C 285.101562 611.34375 292.824219 618.988281 302.242188 618.988281 C 302.320312 618.988281 302.320312 618.988281 302.320312 618.988281 L 632.96875 618.988281 C 642.46875 618.988281 650.191406 626.710938 650.191406 636.207031 L 650.191406 667.402344 C 650.191406 724.3125 604.011719 770.492188 547.101562 770.492188 L 538.996094 770.492188 L 538.996094 805.703125 L 900.996094 805.703125 L 900.996094 770.492188 L 892.886719 770.492188 C 835.976562 770.492188 789.800781 724.3125 789.800781 667.402344 L 789.800781 636.207031 C 789.800781 626.710938 797.523438 618.988281 807.019531 618.988281 L 1137.746094 618.988281 C 1147.167969 618.988281 1154.890625 611.34375 1154.890625 601.84375 L 1154.890625 20.851562 C 1154.890625 11.355469 1147.167969 3.710938 1137.746094 3.710938 L 302.320312 3.710938 " fill-opacity="1" fill-rule="nonzero"/></g><path fill="#5e17eb" d="M 433.050781 459.300781 C 427.570312 459.378906 423.246094 463.855469 423.320312 469.339844 C 423.398438 474.667969 427.722656 478.992188 433.050781 479.066406 L 613.433594 479.066406 C 618.917969 478.992188 623.242188 474.511719 623.164062 469.105469 C 623.085938 463.703125 618.761719 459.378906 613.433594 459.300781 L 433.050781 459.300781 " fill-opacity="1" fill-rule="nonzero"/><path fill="#5e17eb" d="M 433.050781 417.523438 C 427.570312 417.601562 423.246094 422.082031 423.320312 427.5625 C 423.398438 432.890625 427.722656 437.214844 433.050781 437.292969 L 613.433594 437.292969 C 618.917969 437.214844 623.242188 432.738281 623.164062 427.332031 C 623.085938 421.925781 618.761719 417.601562 613.433594 417.523438 L 433.050781 417.523438 " fill-opacity="1" fill-rule="nonzero"/><path fill="#5e17eb" d="M 533.125 115.832031 L 533.125 235.367188 L 636.597656 295.054688 C 666.40625 232.433594 639.917969 157.53125 577.296875 127.722656 C 563.394531 121.082031 548.414062 117.066406 533.125 115.832031 " fill-opacity="1" fill-rule="nonzero"/><path fill="#5e17eb" d="M 513.359375 115.832031 L 513.359375 246.71875 L 626.714844 312.199219 C 587.410156 369.339844 509.265625 383.78125 452.125 344.476562 C 394.984375 305.171875 380.464844 227.027344 419.769531 169.886719 C 441.238281 138.6875 475.597656 118.84375 513.359375 115.832031 " fill-opacity="1" fill-rule="nonzero"/><path fill="#5e17eb" d="M 898.910156 271.738281 L 855.824219 203.476562 C 850.03125 194.210938 837.832031 191.507812 828.5625 197.296875 C 826.789062 198.378906 825.242188 199.769531 823.929688 201.390625 L 768.332031 268.339844 L 753.042969 255.675781 L 808.71875 188.726562 C 822.695312 171.96875 847.636719 169.652344 864.394531 183.628906 C 867.558594 186.253906 870.339844 189.421875 872.578125 192.894531 L 915.667969 261.15625 C 921.535156 270.421875 933.660156 273.203125 942.925781 267.335938 C 945.011719 266.023438 946.785156 264.402344 948.175781 262.46875 L 1012.113281 177.066406 L 1002.613281 169.960938 L 1038.753906 157.917969 L 1037.363281 196.0625 L 1027.941406 188.957031 L 964.003906 274.285156 C 950.957031 291.8125 926.167969 295.363281 908.71875 282.316406 C 904.855469 279.382812 901.535156 275.828125 898.988281 271.738281 L 898.910156 271.738281 " fill-opacity="1" fill-rule="nonzero"/><path fill="#5e17eb" d="M 993.425781 266.253906 L 1031.109375 266.253906 L 1031.109375 445.554688 L 993.425781 445.554688 L 993.425781 266.253906 " fill-opacity="1" fill-rule="nonzero"/><path fill="#5e17eb" d="M 906.089844 445.554688 L 906.089844 343.550781 L 943.851562 343.550781 L 943.851562 445.554688 L 906.089844 445.554688 " fill-opacity="1" fill-rule="nonzero"/><path fill="#5e17eb" d="M 818.757812 445.554688 L 818.757812 243.628906 L 856.515625 243.628906 L 856.515625 445.554688 L 818.757812 445.554688 " fill-opacity="1" fill-rule="nonzero"/><path fill="#5e17eb" d="M 769.183594 445.554688 L 731.5 445.554688 L 731.5 300.539062 L 769.183594 300.539062 L 769.183594 445.554688 " fill-opacity="1" fill-rule="nonzero"/></svg>