<svg xmlns="http://www.w3.org/2000/svg" xmlns:xlink="http://www.w3.org/1999/xlink" width="1920" zoomAndPan="magnify" viewBox="0 0 1440 809.999993" height="1080" preserveAspectRatio="xMidYMid meet" version="1.0"><defs><clipPath id="7d04835442"><path d="M 340.3125 2 L 1100 2 L 1100 808 L 340.3125 808 Z M 340.3125 2 " clip-rule="nonzero"/></clipPath></defs><g clip-path="url(#7d04835442)"><path fill="#5e17eb" d="M 425.960938 807.316406 L 896.433594 807.316406 C 943.660156 807.316406 982.058594 768.90625 982.058594 721.679688 L 982.058594 689.699219 L 1014.039062 689.699219 C 1061.261719 689.699219 1099.6875 651.289062 1099.6875 604.0625 L 1099.6875 88.320312 C 1099.6875 41.09375 1061.261719 2.683594 1014.039062 2.683594 L 543.566406 2.683594 C 496.339844 2.683594 457.945312 41.09375 457.945312 88.320312 L 457.945312 120.300781 L 425.960938 120.300781 C 378.738281 120.300781 340.3125 158.710938 340.3125 205.9375 L 340.3125 721.679688 C 340.3125 768.90625 378.738281 807.316406 425.960938 807.316406 Z M 511.585938 88.320312 C 511.585938 70.679688 525.9375 56.324219 543.566406 56.324219 L 1014.039062 56.324219 C 1031.691406 56.324219 1046.046875 70.679688 1046.046875 88.320312 L 1046.046875 604.0625 C 1046.046875 621.703125 1031.691406 636.058594 1014.039062 636.058594 L 982.058594 636.058594 L 982.058594 205.9375 C 982.058594 158.710938 943.660156 120.300781 896.433594 120.300781 L 511.585938 120.300781 Z M 393.953125 205.9375 C 393.953125 188.296875 408.308594 173.941406 425.960938 173.941406 L 896.433594 173.941406 C 914.0625 173.941406 928.414062 188.296875 928.414062 205.9375 L 928.414062 721.679688 C 928.414062 739.320312 914.0625 753.675781 896.433594 753.675781 L 425.960938 753.675781 C 408.308594 753.675781 393.953125 739.320312 393.953125 721.679688 Z M 393.953125 205.9375 " fill-opacity="1" fill-rule="nonzero"/></g><path fill="#5e17eb" d="M 520.859375 490.636719 L 634.375 490.636719 L 634.375 604.140625 C 634.375 618.953125 646.371094 630.964844 661.199219 630.964844 C 676.023438 630.964844 688.019531 618.953125 688.019531 604.140625 L 688.019531 490.636719 L 801.511719 490.636719 C 816.335938 490.636719 828.332031 478.628906 828.332031 463.816406 C 828.332031 449.003906 816.335938 436.992188 801.511719 436.992188 L 688.019531 436.992188 L 688.019531 323.476562 C 688.019531 308.664062 676.023438 296.652344 661.199219 296.652344 C 646.371094 296.652344 634.375 308.664062 634.375 323.476562 L 634.375 436.992188 L 520.859375 436.992188 C 506.03125 436.992188 494.035156 449.003906 494.035156 463.816406 C 494.035156 478.628906 506.03125 490.636719 520.859375 490.636719 Z M 520.859375 490.636719 " fill-opacity="1" fill-rule="nonzero"/></svg>