<svg xmlns="http://www.w3.org/2000/svg" xmlns:xlink="http://www.w3.org/1999/xlink" width="1920" zoomAndPan="magnify" viewBox="0 0 1440 809.999993" height="1080" preserveAspectRatio="xMidYMid meet" version="1.0"><defs><clipPath id="479fb04d62"><path d="M 232 25.144531 L 1258 25.144531 L 1258 442 L 232 442 Z M 232 25.144531 " clip-rule="nonzero"/></clipPath><clipPath id="98e9555f53"><path d="M 214.496094 153 L 1278.746094 153 L 1278.746094 784.894531 L 214.496094 784.894531 Z M 214.496094 153 " clip-rule="nonzero"/></clipPath></defs><g clip-path="url(#479fb04d62)"><path fill="#5e17eb" d="M 677.0625 417.453125 C 679.535156 419.351562 682.082031 421.148438 684.703125 422.835938 C 687.320312 424.527344 690.007812 426.105469 692.757812 427.578125 C 695.503906 429.046875 698.308594 430.402344 701.171875 431.640625 C 704.03125 432.882812 706.9375 434.003906 709.886719 435.007812 C 712.839844 436.007812 715.828125 436.890625 718.851562 437.648438 C 721.875 438.40625 724.925781 439.039062 728.003906 439.546875 C 731.078125 440.054688 734.167969 440.433594 737.277344 440.6875 C 740.382812 440.945312 743.496094 441.070312 746.613281 441.070312 C 749.730469 441.070312 752.84375 440.945312 755.949219 440.6875 C 759.058594 440.433594 762.148438 440.054688 765.226562 439.546875 C 768.300781 439.039062 771.351562 438.40625 774.375 437.648438 C 777.398438 436.890625 780.386719 436.007812 783.339844 435.007812 C 786.292969 434.003906 789.199219 432.882812 792.058594 431.640625 C 794.917969 430.402344 797.722656 429.046875 800.472656 427.578125 C 803.222656 426.105469 805.90625 424.527344 808.527344 422.835938 C 811.144531 421.148438 813.691406 419.351562 816.164062 417.453125 L 1257.550781 73.539062 C 1254.941406 69.8125 1252.117188 66.261719 1249.082031 62.875 C 1246.046875 59.492188 1242.816406 56.300781 1239.398438 53.304688 C 1235.976562 50.308594 1232.390625 47.527344 1228.636719 44.964844 C 1224.882812 42.398438 1220.988281 40.066406 1216.957031 37.964844 C 1212.921875 35.867188 1208.777344 34.019531 1204.523438 32.417969 C 1200.265625 30.816406 1195.929688 29.476562 1191.515625 28.398438 C 1187.097656 27.316406 1182.632812 26.503906 1178.117188 25.960938 C 1173.605469 25.417969 1169.074219 25.144531 1164.527344 25.144531 L 328.851562 25.144531 C 326.449219 25.148438 324.046875 25.230469 321.644531 25.390625 C 319.246094 25.546875 316.855469 25.78125 314.46875 26.089844 C 312.085938 26.402344 309.710938 26.785156 307.351562 27.246094 C 304.992188 27.707031 302.648438 28.242188 300.320312 28.851562 C 297.996094 29.460938 295.691406 30.140625 293.40625 30.898438 C 291.125 31.652344 288.867188 32.480469 286.636719 33.378906 C 284.40625 34.277344 282.207031 35.246094 280.035156 36.285156 C 277.867188 37.324219 275.734375 38.429688 273.632812 39.601562 C 271.535156 40.777344 269.476562 42.015625 267.457031 43.320312 C 265.433594 44.625 263.457031 45.992188 261.523438 47.421875 C 259.589844 48.851562 257.707031 50.34375 255.867188 51.894531 C 254.027344 53.441406 252.238281 55.050781 250.503906 56.714844 C 248.765625 58.375 247.082031 60.09375 245.457031 61.863281 C 243.828125 63.632812 242.257812 65.453125 240.746094 67.324219 C 239.234375 69.191406 237.78125 71.109375 236.390625 73.070312 C 235 75.03125 233.671875 77.035156 232.410156 79.082031 Z M 677.0625 417.453125 " fill-opacity="1" fill-rule="nonzero"/></g><g clip-path="url(#98e9555f53)"><path fill="#5e17eb" d="M 862.695312 477.660156 C 860.636719 479.242188 858.546875 480.78125 856.425781 482.273438 C 854.304688 483.769531 852.152344 485.222656 849.972656 486.628906 C 847.792969 488.035156 845.582031 489.398438 843.34375 490.714844 C 841.109375 492.03125 838.847656 493.300781 836.558594 494.527344 C 834.269531 495.75 831.957031 496.925781 829.617188 498.054688 C 827.28125 499.183594 824.921875 500.265625 822.542969 501.300781 C 820.160156 502.332031 817.757812 503.316406 815.335938 504.25 C 812.917969 505.183594 810.476562 506.070312 808.019531 506.90625 C 805.5625 507.738281 803.085938 508.523438 800.597656 509.257812 C 798.109375 509.992188 795.605469 510.671875 793.085938 511.304688 C 790.570312 511.933594 788.039062 512.515625 785.5 513.042969 C 782.957031 513.570312 780.40625 514.042969 777.84375 514.46875 C 775.285156 514.890625 772.714844 515.261719 770.140625 515.578125 C 767.5625 515.894531 764.980469 516.160156 762.394531 516.375 C 759.808594 516.585938 757.21875 516.746094 754.625 516.851562 C 752.03125 516.957031 749.4375 517.011719 746.84375 517.011719 C 744.246094 517.011719 741.652344 516.957031 739.058594 516.851562 C 736.464844 516.746094 733.875 516.585938 731.289062 516.375 C 728.703125 516.160156 726.121094 515.894531 723.542969 515.578125 C 720.96875 515.261719 718.398438 514.890625 715.839844 514.46875 C 713.277344 514.042969 710.726562 513.570312 708.183594 513.042969 C 705.644531 512.515625 703.113281 511.933594 700.597656 511.304688 C 698.078125 510.671875 695.574219 509.992188 693.085938 509.257812 C 690.597656 508.523438 688.121094 507.738281 685.664062 506.90625 C 683.207031 506.070312 680.765625 505.183594 678.347656 504.25 C 675.925781 503.316406 673.523438 502.332031 671.140625 501.300781 C 668.761719 500.265625 666.402344 499.183594 664.066406 498.054688 C 661.726562 496.925781 659.414062 495.75 657.125 494.527344 C 654.835938 493.300781 652.574219 492.03125 650.339844 490.714844 C 648.101562 489.398438 645.890625 488.035156 643.710938 486.628906 C 641.53125 485.222656 639.378906 483.769531 637.257812 482.273438 C 635.136719 480.78125 633.046875 479.242188 630.988281 477.660156 L 214.898438 161.246094 L 214.898438 670.890625 C 214.898438 672.757812 214.945312 674.621094 215.035156 676.484375 C 215.125 678.347656 215.261719 680.207031 215.445312 682.0625 C 215.628906 683.917969 215.855469 685.769531 216.132812 687.613281 C 216.40625 689.457031 216.722656 691.292969 217.085938 693.125 C 217.449219 694.953125 217.859375 696.773438 218.3125 698.582031 C 218.765625 700.390625 219.261719 702.1875 219.804688 703.972656 C 220.347656 705.757812 220.929688 707.527344 221.558594 709.28125 C 222.1875 711.039062 222.859375 712.777344 223.570312 714.5 C 224.285156 716.222656 225.042969 717.929688 225.839844 719.613281 C 226.636719 721.300781 227.472656 722.964844 228.351562 724.609375 C 229.234375 726.253906 230.152344 727.875 231.109375 729.476562 C 232.070312 731.074219 233.066406 732.652344 234.101562 734.203125 C 235.140625 735.753906 236.210938 737.277344 237.324219 738.773438 C 238.433594 740.273438 239.582031 741.742188 240.765625 743.183594 C 241.949219 744.625 243.164062 746.039062 244.417969 747.417969 C 245.671875 748.800781 246.957031 750.152344 248.273438 751.46875 C 249.59375 752.789062 250.945312 754.074219 252.324219 755.328125 C 253.707031 756.578125 255.117188 757.796875 256.5625 758.980469 C 258.003906 760.164062 259.472656 761.3125 260.96875 762.421875 C 262.46875 763.53125 263.992188 764.605469 265.542969 765.640625 C 267.09375 766.679688 268.667969 767.675781 270.269531 768.632812 C 271.867188 769.59375 273.488281 770.511719 275.136719 771.390625 C 276.78125 772.269531 278.445312 773.109375 280.132812 773.90625 C 281.816406 774.703125 283.519531 775.460938 285.246094 776.171875 C 286.96875 776.886719 288.707031 777.558594 290.460938 778.1875 C 292.21875 778.8125 293.988281 779.398438 295.773438 779.941406 C 297.558594 780.480469 299.355469 780.980469 301.164062 781.433594 C 302.972656 781.886719 304.792969 782.292969 306.621094 782.65625 C 308.449219 783.019531 310.289062 783.339844 312.132812 783.613281 C 313.976562 783.886719 315.828125 784.117188 317.683594 784.296875 C 319.539062 784.480469 321.398438 784.617188 323.261719 784.710938 C 325.125 784.800781 326.988281 784.847656 328.851562 784.847656 L 1164.527344 784.847656 C 1166.390625 784.847656 1168.253906 784.800781 1170.117188 784.710938 C 1171.980469 784.617188 1173.839844 784.480469 1175.695312 784.296875 C 1177.550781 784.117188 1179.402344 783.886719 1181.246094 783.613281 C 1183.09375 783.339844 1184.929688 783.019531 1186.757812 782.65625 C 1188.585938 782.292969 1190.40625 781.886719 1192.214844 781.433594 C 1194.023438 780.980469 1195.820312 780.480469 1197.605469 779.941406 C 1199.390625 779.398438 1201.160156 778.8125 1202.917969 778.1875 C 1204.671875 777.558594 1206.414062 776.886719 1208.136719 776.171875 C 1209.859375 775.460938 1211.5625 774.703125 1213.25 773.90625 C 1214.933594 773.109375 1216.601562 772.269531 1218.246094 771.390625 C 1219.890625 770.511719 1221.511719 769.59375 1223.109375 768.632812 C 1224.710938 767.675781 1226.285156 766.679688 1227.835938 765.640625 C 1229.386719 764.605469 1230.910156 763.53125 1232.410156 762.421875 C 1233.90625 761.3125 1235.378906 760.164062 1236.820312 758.980469 C 1238.261719 757.796875 1239.671875 756.578125 1241.054688 755.328125 C 1242.4375 754.074219 1243.785156 752.789062 1245.105469 751.46875 C 1246.421875 750.152344 1247.710938 748.800781 1248.960938 747.417969 C 1250.214844 746.039062 1251.433594 744.625 1252.617188 743.183594 C 1253.796875 741.742188 1254.945312 740.273438 1256.054688 738.773438 C 1257.167969 737.277344 1258.242188 735.753906 1259.277344 734.203125 C 1260.3125 732.652344 1261.3125 731.078125 1262.269531 729.476562 C 1263.226562 727.878906 1264.148438 726.253906 1265.027344 724.609375 C 1265.90625 722.964844 1266.742188 721.300781 1267.539062 719.613281 C 1268.339844 717.929688 1269.09375 716.222656 1269.808594 714.5 C 1270.519531 712.777344 1271.191406 711.039062 1271.820312 709.28125 C 1272.449219 707.527344 1273.035156 705.757812 1273.574219 703.972656 C 1274.117188 702.1875 1274.613281 700.390625 1275.066406 698.582031 C 1275.519531 696.773438 1275.929688 694.953125 1276.292969 693.125 C 1276.65625 691.292969 1276.976562 689.457031 1277.25 687.613281 C 1277.523438 685.769531 1277.75 683.917969 1277.933594 682.0625 C 1278.117188 680.207031 1278.253906 678.347656 1278.34375 676.484375 C 1278.4375 674.621094 1278.480469 672.757812 1278.480469 670.890625 L 1278.480469 153.722656 Z M 862.695312 477.660156 " fill-opacity="1" fill-rule="nonzero"/></g></svg>