<svg xmlns="http://www.w3.org/2000/svg" xmlns:xlink="http://www.w3.org/1999/xlink" width="1920" zoomAndPan="magnify" viewBox="0 0 1440 809.999993" height="1080" preserveAspectRatio="xMidYMid meet" version="1.0"><defs><clipPath id="ca09b09c79"><path d="M 333.488281 17.035156 L 1106.738281 17.035156 L 1106.738281 793 L 333.488281 793 Z M 333.488281 17.035156 " clip-rule="nonzero"/></clipPath></defs><g clip-path="url(#ca09b09c79)"><path fill="#5e17eb" d="M 1098.511719 326.703125 C 1093.40625 301.773438 1085.8125 277.257812 1075.9375 253.839844 C 1066.238281 230.847656 1054.246094 208.679688 1040.292969 187.949219 C 1026.472656 167.421875 1010.601562 148.117188 993.125 130.582031 C 975.652344 113.046875 956.421875 97.128906 935.972656 83.273438 C 915.324219 69.285156 893.25 57.273438 870.359375 47.574219 C 847.046875 37.695312 822.648438 30.113281 797.839844 25.039062 C 772.503906 19.859375 746.433594 17.234375 720.34375 17.234375 C 720.230469 17.234375 720.113281 17.234375 720 17.234375 C 693.824219 17.257812 667.644531 19.929688 642.195312 25.171875 C 617.394531 30.285156 592.988281 37.898438 569.660156 47.804688 C 546.757812 57.527344 524.667969 69.554688 504 83.546875 C 483.535156 97.40625 464.285156 113.3125 446.785156 130.828125 C 429.285156 148.339844 413.398438 167.605469 399.5625 188.082031 C 385.59375 208.761719 373.589844 230.859375 363.894531 253.761719 C 354.015625 277.097656 346.429688 301.5 341.347656 326.300781 C 336.136719 351.75 333.5 377.917969 333.511719 404.089844 C 333.523438 430.664062 336.1875 457.191406 341.429688 482.933594 C 346.539062 508.042969 354.164062 532.710938 364.085938 556.253906 C 373.828125 579.375 385.894531 601.652344 399.941406 622.457031 C 413.855469 643.070312 429.84375 662.429688 447.457031 679.996094 C 465 697.492188 484.304688 713.363281 504.839844 727.167969 C 525.570312 741.101562 547.75 753.054688 570.753906 762.699219 C 594.175781 772.519531 618.707031 780.046875 643.664062 785.070312 C 668.980469 790.164062 695.050781 792.75 721.164062 792.75 C 721.441406 792.75 721.71875 792.75 721.992188 792.75 C 748.039062 792.695312 774.09375 789.984375 799.425781 784.695312 C 824.109375 779.539062 848.402344 771.871094 871.625 761.910156 C 894.414062 752.136719 916.402344 740.054688 936.976562 726.003906 C 957.34375 712.089844 976.5 696.132812 993.914062 678.5625 C 1011.328125 661 1027.132812 641.6875 1040.898438 621.164062 C 1054.796875 600.441406 1066.730469 578.300781 1076.367188 555.367188 C 1086.1875 532 1093.71875 507.566406 1098.753906 482.753906 C 1103.917969 457.285156 1106.515625 431.105469 1106.472656 404.9375 C 1106.429688 378.59375 1103.753906 352.269531 1098.515625 326.703125 Z M 721.035156 743.226562 C 535.476562 743.226562 383.648438 593.382812 382.492188 408.988281 C 381.917969 317.082031 417.121094 230.824219 481.621094 166.097656 C 544.785156 102.710938 631.292969 66.410156 719.105469 66.410156 C 719.394531 66.410156 719.695312 66.410156 719.984375 66.410156 C 905.546875 66.921875 1056.957031 218.90625 1057.507812 405.210938 C 1057.769531 495.054688 1022.777344 579.824219 958.976562 643.90625 C 895.324219 707.828125 810.988281 743.101562 721.503906 743.222656 C 721.34375 743.222656 721.195312 743.222656 721.035156 743.222656 Z M 721.035156 743.226562 " fill-opacity="1" fill-rule="nonzero"/></g><path fill="#5e17eb" d="M 921.808594 221.914062 C 917.742188 221.660156 913.386719 222.105469 909.855469 223.128906 C 862.773438 236.800781 812.507812 251.652344 756.175781 268.542969 C 666.5 295.425781 560.25 327.339844 452.148438 360.191406 C 444.519531 362.511719 435.425781 369.527344 432.804688 378.453125 C 430.449219 386.464844 432.816406 394.417969 439.136719 399.726562 C 442.722656 402.746094 446.832031 404.367188 450.734375 405.773438 C 467.109375 411.671875 483.753906 417.695312 499.847656 423.519531 C 534.996094 436.234375 571.324219 449.378906 607.175781 462.085938 C 606 471.671875 604.835938 481.335938 603.6875 491.125 C 601.800781 507.21875 600.847656 515.269531 600.277344 520.875 C 597.089844 552.441406 597.582031 567.378906 597.890625 573.609375 C 599.171875 599.75 603.574219 603.207031 605.332031 604.324219 C 613.417969 609.429688 625.945312 602.988281 635.113281 598.273438 C 639.003906 596.273438 643.890625 593.328125 675.351562 566.667969 C 676.757812 565.472656 677.914062 564.492188 678.660156 563.859375 C 681.949219 569.03125 685.242188 574.234375 688.457031 579.300781 C 699.605469 596.894531 711.136719 615.085938 722.726562 632.867188 C 724.230469 635.171875 732.152344 646.421875 743.589844 646.421875 C 743.859375 646.421875 744.128906 646.414062 744.402344 646.402344 C 756.539062 645.839844 763.3125 632.714844 764.550781 630.089844 C 777.417969 602.75 790.324219 574.890625 802.808594 547.949219 C 809.640625 533.207031 816.703125 517.964844 823.671875 502.988281 C 834.160156 480.460938 844.832031 457.558594 855.152344 435.414062 C 882.464844 376.8125 910.707031 316.214844 938.296875 256.523438 C 941.648438 249.273438 942.90625 237.863281 937.757812 229.9375 C 935.585938 226.59375 931.054688 222.488281 921.808594 221.914062 Z M 867.203125 307.304688 L 740.457031 579.738281 L 660.066406 453.214844 Z M 624.714844 421.4375 C 591.230469 409.085938 557.121094 396.8125 524.09375 384.933594 L 796.390625 303.292969 C 741.230469 342.042969 684.992188 381.585938 629.605469 420.738281 C 627.90625 421.941406 627.257812 422.042969 627.230469 422.042969 C 627.203125 422.050781 626.582031 422.121094 624.714844 421.433594 Z M 641.949219 537.113281 L 644.832031 510.53125 L 654.808594 526.210938 L 641.949219 537.117188 Z M 641.949219 537.113281 " fill-opacity="1" fill-rule="nonzero"/></svg>